<?xml version="1.0" standalone="no"?>
<!DOCTYPE svg PUBLIC "-//W3C//DTD SVG 20010904//EN"
 "http://www.w3.org/TR/2001/REC-SVG-20010904/DTD/svg10.dtd">
<svg version="1.0" xmlns="http://www.w3.org/2000/svg"
 width="677.000000pt" height="677.000000pt" viewBox="0 0 677.000000 677.000000"
 preserveAspectRatio="xMidYMid meet">
<metadata>
Created by potrace 1.11, written by Peter Selinger 2001-2013
</metadata>
<g transform="translate(0.000000,677.000000) scale(0.100000,-0.100000)"
fill="#000000" stroke="none">
<path d="M3980 6744 c-42 -14 -857 -260 -890 -269 -8 -2 -46 -13 -85 -25 -110
-34 -199 -60 -215 -65 -8 -2 -131 -39 -274 -82 l-259 -78 -198 -260 c-109
-143 -202 -264 -206 -270 -113 -135 -136 -179 -168 -324 -2 -9 -97 -385 -210
-836 -214 -851 -212 -842 -220 -876 -2 -11 -7 -29 -10 -39 -3 -10 -7 -27 -10
-37 -2 -10 -15 -64 -29 -121 l-25 -102 19 -68 c11 -37 24 -80 29 -97 6 -16 49
-160 96 -320 47 -159 99 -333 115 -385 16 -52 75 -248 130 -435 106 -356 129
-431 205 -685 26 -85 49 -161 51 -170 5 -20 45 -153 194 -650 67 -223 126
-418 130 -435 5 -16 14 -50 22 -74 l13 -43 55 98 c30 54 77 137 103 184 26 47
55 99 63 115 8 17 23 44 33 60 15 26 136 243 219 395 13 25 50 90 81 145 31
55 59 107 63 116 4 9 -11 86 -33 170 -22 85 -42 161 -44 169 -1 8 -11 44 -20
80 -9 36 -18 72 -20 80 -2 8 -31 123 -65 255 -34 132 -64 247 -65 255 -2 8
-22 85 -44 170 -89 345 -143 556 -146 570 -2 8 -13 53 -25 100 -12 47 -23 92
-25 100 -2 8 -17 69 -35 135 -17 66 -33 127 -35 135 -2 8 -13 53 -25 100 -12
47 -24 93 -25 103 -2 10 -14 52 -25 95 -12 42 -24 86 -26 97 -2 11 -37 150
-78 309 l-73 288 40 47 c21 25 49 57 61 71 11 14 91 108 176 210 85 102 164
196 176 210 12 14 110 131 219 260 108 129 206 246 218 260 12 14 44 52 71 85
28 33 52 62 56 65 3 3 25 30 50 60 25 30 49 60 55 66 5 6 26 30 45 54 19 24
40 48 45 54 6 6 48 56 94 111 46 55 87 101 91 103 5 2 64 -9 132 -23 136 -29
376 -80 453 -96 28 -6 59 -12 70 -14 11 -3 74 -16 140 -31 66 -14 131 -27 145
-30 14 -2 57 -11 95 -20 62 -14 103 -22 195 -40 80 -16 205 -46 209 -50 3 -3
6 -51 7 -107 1 -56 5 -275 9 -487 4 -212 8 -473 10 -580 2 -107 4 -264 5 -348
2 -84 -1 -157 -6 -162 -7 -6 -117 -36 -244 -65 -85 -19 -130 -30 -295 -70
-104 -26 -197 -48 -205 -50 -8 -2 -62 -15 -120 -30 -102 -25 -123 -30 -165
-39 -11 -2 -49 -11 -83 -21 -53 -13 -67 -14 -80 -3 -10 7 -91 86 -182 175 -91
89 -200 195 -242 236 -43 41 -78 77 -78 81 0 4 37 24 83 45 361 167 392 184
391 201 -4 37 -38 190 -45 201 -6 10 -46 -6 -161 -63 -84 -42 -219 -108 -300
-148 l-147 -72 -10 -47 c-43 -188 -50 -225 -47 -229 2 -2 58 -60 123 -129 65
-69 165 -175 223 -235 l105 -108 285 -111 c157 -61 297 -115 312 -119 19 -6
81 5 221 41 108 26 206 50 219 53 88 17 446 110 460 120 9 6 105 116 214 245
l197 233 18 82 c10 44 21 97 24 116 3 19 26 132 50 250 50 245 105 515 111
545 2 11 9 45 15 75 6 30 12 60 13 65 6 26 16 73 20 98 3 15 7 35 10 45 3 9 7
33 10 52 4 19 10 52 15 73 8 35 6 42 -37 100 -25 34 -69 94 -97 132 -29 39
-157 212 -286 385 -129 173 -254 343 -279 377 l-45 61 -180 52 c-99 29 -187
53 -195 55 -8 2 -71 20 -140 40 -69 20 -132 38 -140 40 -8 2 -40 11 -70 19
-65 19 -63 19 -120 0z"/>
</g>
</svg>
